<svg width="22" height="22" viewBox="0 0 22 22" fill="none" xmlns="http://www.w3.org/2000/svg">
<mask id="path-1-inside-1_28_226" fill="white">
<path d="M20.6221 13.7507H17.8726V11.6888C17.8724 11.3241 17.7275 10.9744 17.4696 10.7165C17.2118 10.4587 16.8621 10.3137 16.4974 10.3136H11.686V8.25172H13.7479C14.1125 8.2516 14.4622 8.10666 14.72 7.84877C14.9778 7.59088 15.1226 7.24117 15.1226 6.87652V1.37755C15.1225 1.01298 14.9776 0.663382 14.7198 0.405594C14.462 0.147807 14.1124 0.00292904 13.7479 0.00280762H8.24891C7.8843 0.00292896 7.53466 0.147792 7.27679 0.405567C7.01893 0.663341 6.87395 1.01294 6.87371 1.37755V6.87652C6.87383 7.24121 7.01876 7.59092 7.27663 7.8488C7.53451 8.10667 7.88422 8.2516 8.24891 8.25172H10.3108V10.3136H5.49897C5.13436 10.3138 4.78476 10.4588 4.52699 10.7167C4.26921 10.9745 4.12435 11.3242 4.12423 11.6888V13.7507H1.37474C1.01021 13.7509 0.660682 13.8958 0.402921 14.1536C0.145159 14.4114 0.000242699 14.7609 0 15.1254V20.6249C0.000242699 20.9894 0.145159 21.3389 0.402921 21.5967C0.660682 21.8544 1.01021 21.9994 1.37474 21.9996H6.87371C7.23832 21.9995 7.58797 21.8546 7.84583 21.5968C8.10369 21.3391 8.24867 20.9895 8.24891 20.6249V15.1254C8.24867 14.7608 8.10369 14.4112 7.84583 14.1534C7.58797 13.8957 7.23832 13.7508 6.87371 13.7507H5.49897V11.6888H16.4974V13.7507H15.1226C14.7581 13.7509 14.4086 13.8958 14.1508 14.1536C13.893 14.4114 13.7481 14.7609 13.7479 15.1254V20.6249C13.7481 20.9894 13.893 21.3389 14.1508 21.5967C14.4086 21.8544 14.7581 21.9994 15.1226 21.9996H20.6221C20.9866 21.9994 21.3361 21.8544 21.5939 21.5967C21.8516 21.3389 21.9966 20.9894 21.9968 20.6249V15.1254C21.9966 14.7609 21.8516 14.4114 21.5939 14.1536C21.3361 13.8958 20.9866 13.7509 20.6221 13.7507ZM8.24891 6.87652V1.37755H13.7479V6.87652H8.24891ZM6.87371 15.1254V20.6249H1.37474V15.1254H6.87371ZM20.6221 20.6249H15.1226V15.1254H20.6221V20.6249Z"/>
</mask>
<path d="M20.6221 13.7507L20.6234 11.7507H20.6221V13.7507ZM17.8726 13.7507H15.8726V15.7507H17.8726V13.7507ZM17.8726 11.6888H19.8726V11.6881L17.8726 11.6888ZM16.4974 10.3136L16.498 8.3136H16.4974V10.3136ZM11.686 10.3136H9.686V12.3136H11.686V10.3136ZM11.686 8.25172V6.25172H9.686V8.25172H11.686ZM13.7479 8.25172V10.2517L13.7485 10.2517L13.7479 8.25172ZM15.1226 6.87652H13.1226H13.1226H15.1226ZM15.1226 1.37755H17.1226V1.37688L15.1226 1.37755ZM13.7479 0.00280762L13.7485 -1.99719H13.7479V0.00280762ZM8.24891 0.00280762V-1.99719L8.24825 -1.99719L8.24891 0.00280762ZM6.87371 1.37755L4.87371 1.37622V1.37755H6.87371ZM6.87371 6.87652H4.87371V6.87719L6.87371 6.87652ZM8.24891 8.25172L8.24825 10.2517H8.24891V8.25172ZM10.3108 8.25172H12.3108V6.25172H10.3108V8.25172ZM10.3108 10.3136V12.3136H12.3108V10.3136H10.3108ZM5.49897 10.3136V8.3136L5.49764 8.3136L5.49897 10.3136ZM4.12423 11.6888L2.12423 11.6881V11.6888H4.12423ZM4.12423 13.7507V15.7507H6.12423V13.7507H4.12423ZM1.37474 13.7507V11.7507H1.37341L1.37474 13.7507ZM0 15.1254L-2 15.1241V15.1254H0ZM0 20.6249H-2L-2 20.6262L0 20.6249ZM1.37474 21.9996L1.37341 23.9996H1.37474V21.9996ZM6.87371 21.9996V23.9996H6.87438L6.87371 21.9996ZM8.24891 20.6249L10.2489 20.6262V20.6249H8.24891ZM8.24891 15.1254H10.2489L10.2489 15.1241L8.24891 15.1254ZM6.87371 13.7507L6.87438 11.7507H6.87371V13.7507ZM5.49897 13.7507H3.49897V15.7507H5.49897V13.7507ZM5.49897 11.6888V9.6888H3.49897V11.6888H5.49897ZM16.4974 11.6888H18.4974V9.6888H16.4974V11.6888ZM16.4974 13.7507V15.7507H18.4974V13.7507H16.4974ZM15.1226 13.7507V11.7507H15.1213L15.1226 13.7507ZM13.7479 15.1254L11.7479 15.1241V15.1254H13.7479ZM13.7479 20.6249H11.7479V20.6262L13.7479 20.6249ZM15.1226 21.9996L15.1213 23.9996H15.1226V21.9996ZM20.6221 21.9996V23.9996H20.6234L20.6221 21.9996ZM21.9968 20.6249L23.9968 20.6262V20.6249H21.9968ZM21.9968 15.1254H23.9968V15.1241L21.9968 15.1254ZM8.24891 6.87652H6.24891V8.87652H8.24891V6.87652ZM8.24891 1.37755V-0.62245H6.24891V1.37755H8.24891ZM13.7479 1.37755H15.7479V-0.62245H13.7479V1.37755ZM13.7479 6.87652V8.87652H15.7479V6.87652H13.7479ZM6.87371 15.1254H8.87371V13.1254H6.87371V15.1254ZM6.87371 20.6249V22.6249H8.87371V20.6249H6.87371ZM1.37474 20.6249H-0.625258V22.6249H1.37474V20.6249ZM1.37474 15.1254V13.1254H-0.625258V15.1254H1.37474ZM20.6221 20.6249V22.6249H22.6221V20.6249H20.6221ZM15.1226 20.6249H13.1226V22.6249H15.1226V20.6249ZM15.1226 15.1254V13.1254H13.1226V15.1254H15.1226ZM20.6221 15.1254H22.6221V13.1254H20.6221V15.1254ZM20.6221 11.7507H17.8726V15.7507H20.6221V11.7507ZM19.8726 13.7507V11.6888H15.8726V13.7507H19.8726ZM19.8726 11.6881C19.8723 10.7932 19.5166 9.93509 18.8839 9.30231L16.0554 12.1307C15.9384 12.0137 15.8726 11.855 15.8726 11.6895L19.8726 11.6881ZM18.8839 9.30231C18.2511 8.66953 17.3929 8.3139 16.498 8.3136L16.4967 12.3136C16.3312 12.3135 16.1725 12.2478 16.0554 12.1307L18.8839 9.30231ZM16.4974 8.3136H11.686V12.3136H16.4974V8.3136ZM13.686 10.3136V8.25172H9.686V10.3136H13.686ZM11.686 10.2517H13.7479V6.25172H11.686V10.2517ZM13.7485 10.2517C14.6435 10.2514 15.5017 9.89569 16.1344 9.26275L13.3055 6.43479C13.4227 6.31763 13.5815 6.25178 13.7472 6.25172L13.7485 10.2517ZM16.1344 9.26275C16.7672 8.62981 17.1226 7.77148 17.1226 6.87652H13.1226C13.1226 6.71085 13.1884 6.55196 13.3055 6.43479L16.1344 9.26275ZM17.1226 6.87652V1.37755H13.1226V6.87652H17.1226ZM17.1226 1.37688C17.1223 0.482112 16.7667 -0.375924 16.1341 -1.00862L13.3056 1.81981C13.1885 1.70269 13.1227 1.54385 13.1226 1.37822L17.1226 1.37688ZM16.1341 -1.00862C15.5014 -1.64132 14.6433 -1.99689 13.7485 -1.99719L13.7472 2.00281C13.5816 2.00275 13.4227 1.93693 13.3056 1.81981L16.1341 -1.00862ZM13.7479 -1.99719H8.24891V2.00281H13.7479V-1.99719ZM8.24825 -1.99719C7.35355 -1.99689 6.49557 -1.64142 5.86282 -1.00888L8.69077 1.82002C8.57374 1.93701 8.41506 2.00275 8.24958 2.00281L8.24825 -1.99719ZM5.86282 -1.00888C5.23007 -0.376343 4.87431 0.481521 4.87371 1.37622L8.87371 1.37888C8.8736 1.54436 8.8078 1.70303 8.69077 1.82002L5.86282 -1.00888ZM4.87371 1.37755V6.87652H8.87371V1.37755H4.87371ZM4.87371 6.87719C4.87401 7.77208 5.22964 8.63023 5.86242 9.26301L8.69085 6.43459C8.80788 6.55162 8.87366 6.71034 8.87371 6.87585L4.87371 6.87719ZM5.86242 9.26301C6.4952 9.89579 7.35335 10.2514 8.24825 10.2517L8.24958 6.25172C8.41509 6.25178 8.57381 6.31755 8.69085 6.43459L5.86242 9.26301ZM8.24891 10.2517H10.3108V6.25172H8.24891V10.2517ZM8.3108 8.25172V10.3136H12.3108V8.25172H8.3108ZM10.3108 8.3136H5.49897V12.3136H10.3108V8.3136ZM5.49764 8.3136C4.60294 8.3142 3.74508 8.66996 3.11254 9.30271L5.94143 12.1307C5.82444 12.2477 5.66578 12.3135 5.5003 12.3136L5.49764 8.3136ZM3.11254 9.30271C2.48 9.93546 2.12452 10.7934 2.12423 11.6881L6.12423 11.6895C6.12417 11.8549 6.05843 12.0136 5.94143 12.1307L3.11254 9.30271ZM2.12423 11.6888V13.7507H6.12423V11.6888H2.12423ZM4.12423 11.7507H1.37474V15.7507H4.12423V11.7507ZM1.37341 11.7507C0.478908 11.7513 -0.378786 12.1069 -1.01129 12.7394L1.81713 15.5678C1.70015 15.6848 1.54152 15.7506 1.37607 15.7507L1.37341 11.7507ZM-1.01129 12.7394C-1.6438 13.3719 -1.9994 14.2296 -2 15.1241L2 15.1268C1.99989 15.2922 1.93412 15.4508 1.81713 15.5678L-1.01129 12.7394ZM-2 15.1254V20.6249H2V15.1254H-2ZM-2 20.6262C-1.9994 21.5207 -1.6438 22.3784 -1.01129 23.0109L1.81713 20.1825C1.93412 20.2995 1.99989 20.4581 2 20.6235L-2 20.6262ZM-1.01129 23.0109C-0.378786 23.6434 0.478908 23.999 1.37341 23.9996L1.37607 19.9996C1.54152 19.9997 1.70015 20.0655 1.81713 20.1825L-1.01129 23.0109ZM1.37474 23.9996H6.87371V19.9996H1.37474V23.9996ZM6.87438 23.9996C7.76908 23.9993 8.62706 23.6438 9.25981 23.0113L6.43185 20.1824C6.54888 20.0654 6.70756 19.9997 6.87305 19.9996L6.87438 23.9996ZM9.25981 23.0113C9.89256 22.3788 10.2483 21.5209 10.2489 20.6262L6.24891 20.6235C6.24902 20.458 6.31482 20.2994 6.43185 20.1824L9.25981 23.0113ZM10.2489 20.6249V15.1254H6.24891V20.6249H10.2489ZM10.2489 15.1241C10.2483 14.2294 9.89256 13.3715 9.25981 12.739L6.43185 15.5679C6.31482 15.4509 6.24902 15.2922 6.24891 15.1268L10.2489 15.1241ZM9.25981 12.739C8.62706 12.1065 7.76908 11.751 6.87438 11.7507L6.87305 15.7507C6.70756 15.7506 6.54888 15.6849 6.43185 15.5679L9.25981 12.739ZM6.87371 11.7507H5.49897V15.7507H6.87371V11.7507ZM7.49897 13.7507V11.6888H3.49897V13.7507H7.49897ZM5.49897 13.6888H16.4974V9.6888H5.49897V13.6888ZM14.4974 11.6888V13.7507H18.4974V11.6888H14.4974ZM16.4974 11.7507H15.1226V15.7507H16.4974V11.7507ZM15.1213 11.7507C14.2268 11.7513 13.3691 12.1069 12.7366 12.7394L15.565 15.5678C15.448 15.6848 15.2894 15.7506 15.124 15.7507L15.1213 11.7507ZM12.7366 12.7394C12.1041 13.3719 11.7485 14.2296 11.7479 15.1241L15.7479 15.1268C15.7478 15.2922 15.682 15.4508 15.565 15.5678L12.7366 12.7394ZM11.7479 15.1254V20.6249H15.7479V15.1254H11.7479ZM11.7479 20.6262C11.7485 21.5207 12.1041 22.3784 12.7366 23.0109L15.565 20.1825C15.682 20.2994 15.7478 20.4581 15.7479 20.6235L11.7479 20.6262ZM12.7366 23.0109C13.3691 23.6434 14.2268 23.999 15.1213 23.9996L15.124 19.9996C15.2894 19.9997 15.448 20.0655 15.565 20.1825L12.7366 23.0109ZM15.1226 23.9996H20.6221V19.9996H15.1226V23.9996ZM20.6234 23.9996C21.5179 23.999 22.3756 23.6434 23.0081 23.0109L20.1797 20.1825C20.2966 20.0655 20.4553 19.9997 20.6207 19.9996L20.6234 23.9996ZM23.0081 23.0109C23.6406 22.3784 23.9962 21.5207 23.9968 20.6262L19.9968 20.6235C19.9969 20.4581 20.0627 20.2994 20.1797 20.1825L23.0081 23.0109ZM23.9968 20.6249V15.1254H19.9968V20.6249H23.9968ZM23.9968 15.1241C23.9962 14.2296 23.6406 13.3719 23.0081 12.7394L20.1797 15.5678C20.0627 15.4508 19.9969 15.2922 19.9968 15.1268L23.9968 15.1241ZM23.0081 12.7394C22.3756 12.1069 21.5179 11.7513 20.6234 11.7507L20.6207 15.7507C20.4553 15.7506 20.2966 15.6848 20.1797 15.5678L23.0081 12.7394ZM10.2489 6.87652V1.37755H6.24891V6.87652H10.2489ZM8.24891 3.37755H13.7479V-0.62245H8.24891V3.37755ZM11.7479 1.37755V6.87652H15.7479V1.37755H11.7479ZM13.7479 4.87652H8.24891V8.87652H13.7479V4.87652ZM4.87371 15.1254V20.6249H8.87371V15.1254H4.87371ZM6.87371 18.6249H1.37474V22.6249H6.87371V18.6249ZM3.37474 20.6249V15.1254H-0.625258V20.6249H3.37474ZM1.37474 17.1254H6.87371V13.1254H1.37474V17.1254ZM20.6221 18.6249H15.1226V22.6249H20.6221V18.6249ZM17.1226 20.6249V15.1254H13.1226V20.6249H17.1226ZM15.1226 17.1254H20.6221V13.1254H15.1226V17.1254ZM18.6221 15.1254V20.6249H22.6221V15.1254H18.6221Z" fill="#5F636B" mask="url(#path-1-inside-1_28_226)"/>
</svg>
