<svg width="22" height="22" viewBox="0 0 22 22" fill="none" xmlns="http://www.w3.org/2000/svg">
<path d="M20.1398 16.8024C20.1398 17.1324 20.0665 17.4716 19.9106 17.8016C19.7548 18.1316 19.5532 18.4433 19.2873 18.7366C18.8382 19.2316 18.3431 19.5891 17.784 19.8183C17.234 20.0474 16.6382 20.1666 15.9965 20.1666C15.0615 20.1666 14.0623 19.9466 13.0082 19.4974C11.954 19.0483 10.8998 18.4433 9.85482 17.6824C8.80065 16.9124 7.80148 16.0599 6.84815 15.1158C5.90398 14.1624 5.05148 13.1633 4.29065 12.1183C3.53898 11.0733 2.93398 10.0283 2.49398 8.99242C2.05398 7.94742 1.83398 6.94825 1.83398 5.99492C1.83398 5.37159 1.94398 4.77575 2.16398 4.22575C2.38398 3.66659 2.73232 3.15325 3.21815 2.69492C3.80482 2.11742 4.44648 1.83325 5.12482 1.83325C5.38148 1.83325 5.63815 1.88825 5.86732 1.99825C6.10565 2.10825 6.31648 2.27325 6.48148 2.51159L8.60815 5.50909C8.77315 5.73825 8.89232 5.94909 8.97482 6.15075C9.05732 6.34325 9.10315 6.53575 9.10315 6.70992C9.10315 6.92992 9.03898 7.14992 8.91065 7.36075C8.79148 7.57159 8.61732 7.79159 8.39732 8.01159L7.70065 8.73575C7.59982 8.83659 7.55398 8.95575 7.55398 9.10242C7.55398 9.17575 7.56315 9.23992 7.58148 9.31325C7.60898 9.38659 7.63648 9.44159 7.65482 9.49659C7.81982 9.79909 8.10398 10.1933 8.50732 10.6699C8.91982 11.1466 9.35982 11.6324 9.83648 12.1183C10.3315 12.6041 10.8082 13.0533 11.294 13.4658C11.7707 13.8691 12.1648 14.1441 12.4765 14.3091C12.5223 14.3274 12.5773 14.3549 12.6415 14.3824C12.7148 14.4099 12.7882 14.4191 12.8707 14.4191C13.0265 14.4191 13.1457 14.3641 13.2465 14.2633L13.9432 13.5758C14.1723 13.3466 14.3923 13.1724 14.6032 13.0624C14.814 12.9341 15.0248 12.8699 15.254 12.8699C15.4281 12.8699 15.6115 12.9066 15.8132 12.9891C16.0148 13.0716 16.2257 13.1908 16.4548 13.3466L19.489 15.5008C19.7273 15.6658 19.8923 15.8583 19.9931 16.0874C20.0848 16.3166 20.1398 16.5458 20.1398 16.8024Z" stroke="#5F636B" stroke-width="2" stroke-miterlimit="10"/>
<path d="M16.9593 8.24996C16.9593 7.69996 16.5285 6.85663 15.8868 6.16913C15.3001 5.53663 14.521 5.04163 13.751 5.04163" stroke="#5F636B" stroke-width="2" stroke-linecap="round" stroke-linejoin="round"/>
<path d="M20.1676 8.24992C20.1676 4.70242 17.2985 1.83325 13.751 1.83325" stroke="#5F636B" stroke-width="2" stroke-linecap="round" stroke-linejoin="round"/>
</svg>
