<svg width="75" height="75" viewBox="0 0 75 75" fill="none" xmlns="http://www.w3.org/2000/svg">
<path d="M29.5555 49.4306L30.9055 45.735L32.2555 49.4306H29.5555Z" fill="white"/>
<path d="M61.8834 52.7044C59.3858 52.7044 57.3946 50.6962 57.3946 48.2325C57.3946 45.7519 59.3858 43.7269 61.8834 43.7269C64.3808 43.7269 66.4058 45.7519 66.4058 48.2325C66.4058 50.6962 64.3808 52.7044 61.8834 52.7044Z" fill="white"/>
<path fill-rule="evenodd" clip-rule="evenodd" d="M75 37.5C75 58.2107 58.2107 75 37.5 75C16.7893 75 0 58.2107 0 37.5C0 16.7893 16.7893 0 37.5 0C58.2107 0 75 16.7893 75 37.5ZM44.2186 17.1137C44.6045 17.4588 44.6376 18.0515 44.2924 18.4375L41.33 21.75L44.2924 25.0626C44.6376 25.4485 44.6045 26.0411 44.2186 26.3863C43.8327 26.7315 43.24 26.6984 42.8949 26.3124L39.653 22.6875C39.1755 22.1536 39.1755 21.3464 39.653 20.8126L42.8949 17.1875C43.24 16.8016 43.8327 16.7685 44.2186 17.1137ZM31.1398 17.486C30.7782 17.1154 30.1847 17.1081 29.814 17.4696C29.4435 17.8312 29.4361 18.4248 29.7977 18.7954L42.2825 31.5922C42.644 31.9628 43.2376 31.9702 43.6082 31.6086C43.9788 31.247 43.9862 30.6535 43.6245 30.2829L31.1398 17.486ZM30.7744 23.704C31.1451 23.3424 31.7386 23.3497 32.1002 23.7203L38.1825 29.9547C38.544 30.3253 38.5367 30.9188 38.1662 31.2804C37.7955 31.642 37.202 31.6347 36.8404 31.2641L30.7581 25.0297C30.3965 24.659 30.4039 24.0656 30.7744 23.704ZM30.7744 28.954C31.1451 28.5924 31.7386 28.5997 32.1002 28.9703L33.0605 29.9547C33.4221 30.3253 33.4148 30.9188 33.0441 31.2804C32.6736 31.642 32.08 31.6347 31.7184 31.2641L30.7581 30.2797C30.3965 29.9091 30.4039 29.3155 30.7744 28.954ZM12.3228 42.8156C11.7491 42.2587 10.7027 41.82 9.87591 41.82C7.9184 41.82 6.46717 43.2713 6.46717 45.2288C6.46717 46.4944 7.10838 47.4731 7.90157 47.9457C8.37479 48.2217 8.88256 48.4229 9.35429 48.6098C9.68994 48.7427 10.0073 48.8684 10.2809 49.0088C11.0403 49.3969 11.2934 49.8525 11.2934 50.5613C11.2934 51.7088 10.6016 52.5188 9.42032 52.5188C8.71159 52.5188 8.23906 52.3331 7.80029 51.8944C7.56409 51.6581 7.29401 51.5569 7.07462 51.5569C6.50093 51.5569 6.12968 51.9281 6.12968 52.5019C6.12968 52.7382 6.24779 53.0588 6.50093 53.3119C7.07462 53.8857 8.05344 54.4594 9.21776 54.4594C11.7997 54.4594 13.2341 52.6031 13.2341 50.5613C13.2341 49.3969 12.7278 48.3338 11.8334 47.6587C11.4943 47.4094 11.0138 47.225 10.5208 47.0356C10.1795 46.9046 9.83219 46.7713 9.5216 46.6125C8.76217 46.2244 8.40775 45.9037 8.40775 45.2288C8.40775 44.3175 9.0659 43.7606 9.74087 43.7606C10.2641 43.7606 10.6016 43.8788 11.0066 44.2669C11.2428 44.4863 11.479 44.6213 11.8334 44.6213C12.3735 44.6213 12.711 44.2163 12.711 43.6425C12.711 43.3556 12.6265 43.1025 12.3228 42.8156ZM25.2625 43.9293C24.0982 42.63 22.36 41.7863 20.4869 41.7863C16.9431 41.7863 14.0575 44.6719 14.0575 48.2325C14.0575 51.81 16.9431 54.645 20.4869 54.645C22.3769 54.645 24.0475 53.8688 25.2287 52.5862C25.4144 52.3837 25.5325 52.1138 25.5325 51.7931C25.5325 51.2531 25.1274 50.8819 24.5368 50.8819C24.2331 50.8819 23.9969 51.0506 23.8113 51.27C22.9675 52.1981 21.82 52.7044 20.4869 52.7044C17.9893 52.7044 15.9982 50.6962 15.9982 48.2325C15.9982 45.7688 17.9893 43.7269 20.4869 43.7269C21.8368 43.7269 23.0013 44.2838 23.845 45.2288C23.9631 45.3638 24.1318 45.5494 24.5538 45.5494C25.1274 45.5494 25.5325 45.1781 25.5325 44.5706C25.5325 44.2669 25.3975 44.0981 25.2625 43.9293ZM32.8967 51.1519L33.8417 53.8013C34.0105 54.2906 34.3649 54.4594 34.7361 54.4594C35.2423 54.4594 35.7317 54.0713 35.7317 53.4806C35.7317 53.3456 35.698 53.2275 35.6643 53.1263L31.8167 42.63C31.6649 42.2081 31.3105 42.0056 30.8886 42.0056C30.4499 42.0056 30.1292 42.2081 29.9773 42.63L26.1298 53.16C26.0947 53.2537 26.0758 53.3311 26.0676 53.4148C26.0639 53.4517 26.0623 53.4899 26.0623 53.5312C26.0623 54.1387 26.5854 54.4594 27.0411 54.4594C27.4967 54.4594 27.8004 54.2738 27.9692 53.8013L28.9142 51.1519H32.8967ZM38.6319 53.4806V46.5788L42.6988 53.8688C42.9182 54.2738 43.2726 54.4594 43.6607 54.4594C44.1332 54.4594 44.6058 54.1219 44.6058 53.5481V42.9675C44.6058 42.3769 44.2007 42.0056 43.6439 42.0056C43.0363 42.0056 42.6651 42.3769 42.6651 42.9675V49.8356L38.5476 42.4781C38.362 42.1406 38.0245 42.0056 37.687 42.0056C37.1976 42.0056 36.6914 42.3431 36.6914 43.0181V53.4806C36.6914 54.0881 37.1132 54.4594 37.6532 54.4594C38.2607 54.4594 38.6319 54.0881 38.6319 53.4806ZM48.1736 53.4806V46.5788L52.2404 53.8688C52.4598 54.2738 52.8143 54.4594 53.2023 54.4594C53.6749 54.4594 54.1474 54.1219 54.1474 53.5481V42.9675C54.1474 42.3769 53.7424 42.0056 53.1855 42.0056C52.5779 42.0056 52.2067 42.3769 52.2067 42.9675V49.8356L48.0892 42.4781C47.9036 42.1406 47.5661 42.0056 47.2286 42.0056C46.7393 42.0056 46.233 42.3431 46.233 43.0181V53.4806C46.233 54.0881 46.6548 54.4594 47.1949 54.4594C47.8023 54.4594 48.1736 54.0881 48.1736 53.4806ZM61.8834 41.7863C58.3396 41.7863 55.4539 44.6719 55.4539 48.2325C55.4539 51.81 58.3396 54.645 61.8834 54.645C65.444 54.645 68.3296 51.81 68.3296 48.2325C68.3296 44.6719 65.444 41.7863 61.8834 41.7863Z" fill="white"/>
</svg>
