<svg width="4" height="18" viewBox="0 0 4 18" fill="none" xmlns="http://www.w3.org/2000/svg">
<path d="M1.99979 3.34504C2.4929 3.34504 2.89265 2.94529 2.89265 2.45218C2.89265 1.95907 2.4929 1.55933 1.99979 1.55933C1.50668 1.55933 1.10693 1.95907 1.10693 2.45218C1.10693 2.94529 1.50668 3.34504 1.99979 3.34504Z" stroke="white" stroke-width="1.5" stroke-linecap="round" stroke-linejoin="round"/>
<path d="M1.99979 9.89265C2.4929 9.89265 2.89265 9.4929 2.89265 8.99979C2.89265 8.50668 2.4929 8.10693 1.99979 8.10693C1.50668 8.10693 1.10693 8.50668 1.10693 8.99979C1.10693 9.4929 1.50668 9.89265 1.99979 9.89265Z" stroke="white" stroke-width="1.5" stroke-linecap="round" stroke-linejoin="round"/>
<path d="M1.99979 16.4403C2.4929 16.4403 2.89265 16.0405 2.89265 15.5474C2.89265 15.0543 2.4929 14.6545 1.99979 14.6545C1.50668 14.6545 1.10693 15.0543 1.10693 15.5474C1.10693 16.0405 1.50668 16.4403 1.99979 16.4403Z" stroke="white" stroke-width="1.5" stroke-linecap="round" stroke-linejoin="round"/>
</svg>
