<svg width="22" height="22" viewBox="0 0 22 22" fill="none" xmlns="http://www.w3.org/2000/svg">
<path d="M11.1464 9.96415C11.0547 9.95498 10.9447 9.95498 10.8439 9.96415C8.66219 9.89081 6.92969 8.10331 6.92969 5.90331C6.92969 3.65748 8.74469 1.83331 10.9997 1.83331C13.2455 1.83331 15.0697 3.65748 15.0697 5.90331C15.0605 8.10331 13.328 9.89081 11.1464 9.96415Z" stroke="#5F636B" stroke-width="2" stroke-linecap="round" stroke-linejoin="round"/>
<path d="M6.56316 13.3467C4.34483 14.8317 4.34483 17.2517 6.56316 18.7275C9.084 20.4142 13.2182 20.4142 15.739 18.7275C17.9573 17.2425 17.9573 14.8225 15.739 13.3467C13.2273 11.6692 9.09316 11.6692 6.56316 13.3467Z" stroke="#5F636B" stroke-width="2" stroke-linecap="round" stroke-linejoin="round"/>
</svg>
