<svg width="34" height="34" viewBox="0 0 34 34" fill="none" xmlns="http://www.w3.org/2000/svg">
<path d="M32.0003 32L24.762 24.7616M24.762 24.7616C26.0002 23.5235 26.9823 22.0536 27.6524 20.4359C28.3225 18.8182 28.6674 17.0843 28.6674 15.3333C28.6674 13.5823 28.3225 11.8484 27.6524 10.2307C26.9823 8.61302 26.0002 7.14312 24.762 5.90498C23.5239 4.66683 22.054 3.68468 20.4363 3.0146C18.8185 2.34452 17.0847 1.99963 15.3337 1.99963C13.5827 1.99963 11.8488 2.34452 10.2311 3.0146C8.61338 3.68468 7.14349 4.66683 5.90534 5.90498C3.40479 8.40553 2 11.797 2 15.3333C2 18.8696 3.40479 22.2611 5.90534 24.7616C8.40589 27.2622 11.7974 28.667 15.3337 28.667C18.87 28.667 22.2615 27.2622 24.762 24.7616Z" stroke="white" stroke-width="2.5" stroke-linecap="round" stroke-linejoin="round"/>
</svg>
