<svg width="50" height="54" viewBox="0 0 50 54" fill="none" xmlns="http://www.w3.org/2000/svg">
<path d="M27.8743 10.0417H10.8093C9.5525 10.0417 8.5332 11.1139 8.5332 12.4348C8.5332 13.7556 9.5525 14.8278 10.8093 14.8278H27.8743C29.1333 14.8278 30.1505 13.7556 30.1505 12.4348C30.1494 11.1139 29.1322 10.0417 27.8743 10.0417Z" fill="white"/>
<path d="M30.1494 21.4091C30.1494 20.0871 29.1322 19.0161 27.8733 19.0161H10.8093C9.5525 19.0161 8.5332 20.0883 8.5332 21.4091C8.5332 22.7311 9.5525 23.8033 10.8093 23.8033H27.8743C29.1322 23.8033 30.1494 22.7311 30.1494 21.4091Z" fill="white"/>
<path d="M19.3429 32.7785C20.5997 32.7785 21.6179 31.7063 21.6179 30.3855C21.6179 29.0635 20.5997 27.9913 19.3429 27.9913H10.8093C9.5525 27.9913 8.5332 29.0635 8.5332 30.3855C8.5332 31.7075 9.5525 32.7785 10.8093 32.7785H19.3429Z" fill="white"/>
<path d="M36.518 40.9198L34.1311 42.5768V48.5347H4.55117V5.45366H34.1311V14.9115L38.6823 6.61992V3.05952C38.6823 1.73754 37.663 0.666504 36.4062 0.666504H2.27505C1.01823 0.666504 0 1.73866 0 3.05952V50.93C0 52.2519 1.01823 53.323 2.27505 53.323H36.4062C37.664 53.323 38.6833 52.2508 38.6833 50.93V37.7381L37.5959 39.7166C37.3307 40.1995 36.9579 40.6151 36.518 40.9198Z" fill="white"/>
<path d="M49.974 11.751C49.9272 11.5359 49.4468 9.60222 46.5519 7.8433C43.6569 6.08551 41.825 6.61431 41.6226 6.68041C41.351 6.77115 41.122 6.96385 40.9793 7.22376L26.7581 33.1324C26.6697 33.2949 26.6175 33.4753 26.6068 33.6612L26.0743 43.0104C26.0487 43.463 26.2681 43.8909 26.6398 44.1184C27.0148 44.3447 27.476 44.329 27.836 44.0814L35.2671 38.9212C35.4152 38.8203 35.5377 38.6825 35.6261 38.5223L49.8484 12.6092C49.9911 12.3493 50.0347 12.0445 49.974 11.751ZM30.7032 39.9395C30.3251 39.618 29.8959 39.3144 29.4347 39.0332C28.9713 38.752 28.507 38.5156 28.0532 38.3296L28.2119 35.5266C28.8052 35.6084 29.685 35.8615 30.8023 36.5382C31.9185 37.216 32.565 37.8927 32.9314 38.3912L30.7032 39.9395Z" fill="white"/>
<path d="M15.8626 43.837C15.9372 44.3176 16.4644 44.4666 16.817 44.6212C17.1578 44.7725 17.5647 44.4857 17.848 44.3411C19.5841 43.4527 21.9358 44.4969 23.7955 44.4969C24.8957 44.4969 24.8957 42.7021 23.7955 42.7021C21.627 42.7021 19.8227 42.1251 17.6733 42.4982C17.6733 42.3671 17.6275 42.1901 17.4933 41.9492C17.0918 41.2266 16.5805 41.0216 16.0682 41.109C16.0341 41.0238 16.0011 40.9387 15.9532 40.8524C15.819 40.6216 15.6315 40.5063 15.4206 40.4581C16.0203 39.3557 16.4069 38.1894 16.0139 37.2461C15.8935 36.9593 15.5516 36.8125 15.2768 36.8013C14.1372 36.7565 13.1594 38.0146 12.4266 38.7697C10.5936 40.6597 8.9789 42.8052 7.4164 44.9405C6.74539 45.8581 8.22907 46.7498 8.88943 45.848C10.2741 43.9569 11.7407 42.1206 13.3192 40.4032C12.9389 41.0597 12.5353 41.7039 12.1103 42.3245C11.5032 43.3115 12.9528 44.1518 13.5833 43.2309C13.7335 42.99 13.9242 42.8164 14.1329 42.6674C14.0914 42.7783 14.0488 42.8869 14.0062 42.999C14.0083 42.999 14.0104 43.0001 14.0126 43.0012C13.9795 43.0729 13.9465 43.1446 13.9199 43.213C13.5386 44.2179 14.9626 44.6783 15.4803 43.9031C15.6113 43.7081 15.7327 43.4998 15.8424 43.2813C15.8349 43.4314 15.8318 43.6331 15.8626 43.837Z" fill="white"/>
</svg>
