<svg width="37" height="37" viewBox="0 0 37 37" fill="none" xmlns="http://www.w3.org/2000/svg">
<path d="M31.1312 5.79711C29.4886 4.13789 27.5321 2.82235 25.3757 1.9272C23.2194 1.03205 20.9064 0.575225 18.5716 0.583359C8.7891 0.583359 0.816185 8.55627 0.816185 18.3388C0.816185 21.4742 1.64035 24.52 3.18118 27.2075L0.672852 36.4167L10.0791 33.9442C12.677 35.3596 15.5974 36.1121 18.5716 36.1121C28.3541 36.1121 36.327 28.1392 36.327 18.3567C36.327 13.6088 34.4816 9.14752 31.1312 5.79711ZM18.5716 33.1021C15.9199 33.1021 13.322 32.3854 11.0466 31.0417L10.5091 30.7192L4.9191 32.1884L6.40618 26.7417L6.04785 26.1863C4.57465 23.8338 3.79239 21.1145 3.79035 18.3388C3.79035 10.2046 10.4195 3.57544 18.5537 3.57544C22.4953 3.57544 26.2041 5.11628 28.9812 7.91128C30.3563 9.28004 31.446 10.9081 32.1872 12.7012C32.9284 14.4942 33.3063 16.4165 33.2991 18.3567C33.3349 26.4909 26.7058 33.1021 18.5716 33.1021ZM26.6699 22.0654C26.222 21.8504 24.0362 20.7754 23.642 20.6142C23.2299 20.4709 22.9433 20.3992 22.6387 20.8292C22.3341 21.2771 21.492 22.2804 21.2412 22.5671C20.9903 22.8717 20.7216 22.9075 20.2737 22.6746C19.8258 22.4596 18.3924 21.9759 16.7083 20.4709C15.3824 19.2884 14.5045 17.8371 14.2358 17.3892C13.9849 16.9413 14.1999 16.7084 14.4328 16.4754C14.6299 16.2784 14.8808 15.9559 15.0958 15.705C15.3108 15.4542 15.4004 15.2571 15.5437 14.9704C15.687 14.6659 15.6153 14.415 15.5078 14.2C15.4003 13.985 14.5045 11.7992 14.1462 10.9034C13.7878 10.0434 13.4116 10.1509 13.1429 10.1329H12.2828C11.9783 10.1329 11.5124 10.2404 11.1004 10.6884C10.7062 11.1363 9.55952 12.2113 9.55952 14.3971C9.55952 16.5829 11.1541 18.6971 11.3691 18.9838C11.5841 19.2884 14.5045 23.7675 18.9478 25.6846C20.0049 26.1504 20.8291 26.4192 21.4741 26.6163C22.5312 26.9567 23.4987 26.9029 24.2691 26.7954C25.1291 26.67 26.9028 25.7204 27.2612 24.6813C27.6374 23.6421 27.6374 22.7642 27.512 22.5671C27.3866 22.37 27.1178 22.2804 26.6699 22.0654Z" fill="white"/>
</svg>
